<?xml version="1.0" encoding="UTF-8"?>
<svg version="1.1" xmlns="http://www.w3.org/2000/svg" width="400" height="400">
<path d="M0 0 C132 0 264 0 400 0 C400 132 400 264 400 400 C268 400 136 400 0 400 C0 268 0 136 0 0 Z " fill="#FDFDFD" transform="translate(0,0)"/>
<path d="M0 0 C68.31 0 136.62 0 207 0 C203.35439311 4.25320803 199.95496739 8.13114387 196 12 C194.9836488 13.03577406 193.96943257 14.07364611 192.95703125 15.11328125 C191.90889967 16.17973223 190.86072214 17.24613804 189.8125 18.3125 C189.01295898 19.13717773 189.01295898 19.13717773 188.19726562 19.97851562 C186.83575044 21.35715678 185.42159498 22.68339727 184 24 C183.34 24 182.68 24 182 24 C181.6596875 24.86625 181.6596875 24.86625 181.3125 25.75 C179.65599487 28.58972308 177.57432012 29.95224536 175 32 C174.62353773 32.56552361 174.24707546 33.13104723 173.85920525 33.71370792 C171.75548914 36.8608771 170.14465497 38.7128606 166.39639664 39.65312004 C163.07256345 39.90293747 159.81017842 39.9308957 156.47705078 39.88647461 C154.55795804 39.9026085 154.55795804 39.9026085 152.60009575 39.91906834 C149.1503343 39.94737561 145.70193842 39.93391882 142.25218201 39.91159821 C139.01099919 39.89701518 135.77018032 39.92037608 132.52905273 39.94055176 C123.06110725 39.97751269 113.59300355 39.95382926 104.125 39.9375 C82.96375 39.958125 61.8025 39.97875 40 40 C39.67 97.42 39.34 154.84 39 214 C96.75 214 154.5 214 214 214 C214 192.88 214 171.76 214 150 C235.27403846 124.18269231 235.27403846 124.18269231 249.4750824 114.21450806 C251.14621359 113.05843164 251.14621359 113.05843164 252 111 C252.66 111 253.32 111 254 111 C254 158.19 254 205.38 254 254 C170.18 254 86.36 254 0 254 C0 170.18 0 86.36 0 0 Z " fill="#222121" transform="translate(73,73)"/>
<path d="M0 0 C3.08100452 1.5741791 5.31888722 4.05424255 7.70273113 6.50823307 C8.25197247 7.06171925 8.8012138 7.61520542 9.36709881 8.18546391 C11.11636077 9.95149241 12.85489257 11.72767374 14.59335613 13.50432682 C15.77886114 14.70488123 16.96505137 15.90475942 18.15194988 17.1039362 C21.05708906 20.04211777 23.9526495 22.98944756 26.84335613 25.94182682 C25.57143452 28.72544532 24.26148079 30.77318279 22.09848118 32.93279743 C21.53715579 33.49810492 20.9758304 34.0634124 20.39749515 34.64585042 C19.78076911 35.25675078 19.16404306 35.86765114 18.52862835 36.49706364 C17.87355112 37.15384971 17.21847389 37.81063579 16.54354584 38.48732448 C14.34336028 40.69080897 12.13609382 42.8870608 9.92880535 45.08342838 C8.35174622 46.65992349 6.77512711 48.2368589 5.19891644 49.81420231 C0.91438273 54.09931086 -3.3762984 58.37821621 -7.66808653 62.65605736 C-12.15065699 67.12614253 -16.62758083 71.60187554 -21.10509968 76.07701969 C-28.62248518 83.5888912 -36.14335287 91.09725844 -43.66689777 98.60295963 C-51.41598587 106.3336882 -59.1629695 114.06651568 -66.90713215 121.80217838 C-67.38452599 122.27904678 -67.86191984 122.75591518 -68.35378017 123.24723414 C-70.74872469 125.63956857 -73.14362789 128.03194437 -75.53851056 130.42434072 C-95.40482006 150.26991862 -115.27843917 170.10816424 -135.15664387 189.94182682 C-142.57546131 183.64888497 -142.57546131 183.64888497 -145.50404072 180.71468449 C-146.06899754 180.15110233 -146.63395435 179.58752018 -147.21603107 179.00685978 C-148.10400379 178.11349415 -148.10400379 178.11349415 -149.00991535 177.20208073 C-149.65467319 176.55746891 -150.29943104 175.91285709 -150.963727 175.24871159 C-153.07077945 173.14096863 -155.1742786 171.02971789 -157.27773762 168.91838932 C-158.74725014 167.44700955 -160.21698521 165.97585202 -161.68693256 164.50490665 C-165.53763914 160.65039907 -169.38533194 156.79289683 -173.2323885 152.93474674 C-177.16559835 148.99127059 -181.10167367 145.05065678 -185.03750324 141.10979557 C-192.74667833 133.38992583 -200.4526701 125.66688693 -208.15664387 117.94182682 C-206.2994101 113.91112558 -203.6294692 111.15898658 -200.49258137 108.08245182 C-199.66447453 107.25858982 -199.66447453 107.25858982 -198.81963825 106.41808414 C-197.06162572 104.67123389 -195.29677496 102.93148081 -193.53164387 101.19182682 C-192.33587306 100.00609091 -191.14055521 98.81989802 -189.94570637 97.63323307 C-187.02124134 94.73077597 -184.09062513 91.83466272 -181.15664387 88.94182682 C-175.52095726 93.63003616 -170.3256042 98.64168091 -165.16055012 103.84026432 C-164.32700504 104.67522434 -163.49345997 105.51018436 -162.63465595 106.37044621 C-159.99377862 109.0168853 -157.3564149 111.66679441 -154.71914387 114.31682682 C-152.92054737 116.12044325 -151.1217216 117.92383107 -149.32265949 119.72698307 C-144.93133139 124.12928943 -140.54287658 128.53444396 -136.15664387 132.94182682 C-129.23734056 127.286389 -123.04625621 120.92810358 -116.76723957 114.58660221 C-115.52173865 113.33262362 -114.27597346 112.07890746 -113.0299654 110.82543278 C-110.35837113 108.13718603 -107.68816886 105.44756693 -105.01891232 102.75699902 C-100.80011926 98.50549694 -96.57529015 94.2600284 -92.34907246 90.01590824 C-91.63486568 89.298615 -90.92065891 88.58132177 -90.18480951 87.84229237 C-88.72522602 86.37640201 -87.26563395 84.91052018 -85.80603349 83.44464672 C-75.97424556 73.5698682 -66.147063 63.6905736 -56.3341341 53.79705143 C-49.70385257 47.11240961 -43.06481841 40.43659998 -36.41549081 33.77090162 C-32.89873657 30.24475375 -29.38675821 26.71411748 -25.88548946 23.17258739 C-22.59893729 19.84834439 -19.30108272 16.53576172 -15.99400425 13.23194218 C-14.78023882 12.0151936 -13.57079066 10.79412136 -12.36593533 9.56854916 C-10.7258647 7.90152936 -9.07126502 6.25045974 -7.41196918 4.60260868 C-6.48820642 3.67293813 -5.56444365 2.74326757 -4.61268806 1.78542519 C-2.15664387 -0.05817318 -2.15664387 -0.05817318 0 0 Z " fill="#222021" transform="translate(334.1566438674927,73.05817317962646)"/>
<path d="M0 0 C0.99 0.33 1.98 0.66 3 1 C-1.52991796 6.43733055 -6.34294216 11.46458931 -11.375 16.4375 C-12.11105469 17.16904297 -12.84710938 17.90058594 -13.60546875 18.65429688 C-15.40136074 20.43852723 -17.19955985 22.22036124 -19 24 C-19.99 23.34 -20.98 22.68 -22 22 C-21.67 21.34 -21.34 20.68 -21 20 C-20.01 20 -19.02 20 -18 20 C-18.33 19.01 -18.66 18.02 -19 17 C-17.68 15.68 -16.36 14.36 -15 13 C-15.33 12.34 -15.66 11.68 -16 11 C-15.34 10.01 -14.68 9.02 -14 8 C-13.34 8.33 -12.68 8.66 -12 9 C-11.67 8.67 -11.34 8.34 -11 8 C-10.01 8 -9.02 8 -8 8 C-6.97980427 7.0206121 -5.97850195 6.02104551 -5 5 C-4.34 5 -3.68 5 -3 5 C-2.87625 4.360625 -2.7525 3.72125 -2.625 3.0625 C-2.315625 2.0415625 -2.315625 2.0415625 -2 1 C-1.34 0.67 -0.68 0.34 0 0 Z " fill="#F1F1F1" transform="translate(232,169)"/>
<path d="M0 0 C0.66 0.66 1.32 1.32 2 2 C-2.29 6.29 -6.58 10.58 -11 15 C-11.99 14.34 -12.98 13.68 -14 13 C-13.67 11.02 -13.34 9.04 -13 7 C-11.02 6.67 -9.04 6.34 -7 6 C-6.67 5.01 -6.34 4.02 -6 3 C-4.0625 1.875 -4.0625 1.875 -2 1 C-1.34 0.67 -0.68 0.34 0 0 Z " fill="#F1F2F1" transform="translate(320,82)"/>
<path d="M0 0 C0.99 0.99 1.98 1.98 3 3 C0.03 5.97 -2.94 8.94 -6 12 C-7 9 -7 9 -5.8125 5.4375 C-4.05521194 2.1047123 -3.49084212 1.08336479 0 0 Z " fill="#EFEFEF" transform="translate(287,113)"/>
<path d="M0 0 C0 3.51716303 -0.82445585 4.37121748 -3 7 C-2.67 7.66 -2.34 8.32 -2 9 C-4 10 -4 10 -5.8125 10.25 C-9.01460784 11.34786554 -10.73940523 13.55102234 -13 16 C-13.66 15.67 -14.32 15.34 -15 15 C-10.05 10.05 -5.1 5.1 0 0 Z " fill="#E8E9E9" transform="translate(312,149)"/>
<path d="M0 0 C0 0.99 0 1.98 0 3 C0.94978897 5.15028304 0.94978897 5.15028304 2 7 C1.01 7.66 0.02 8.32 -1 9 C-1 8.34 -1 7.68 -1 7 C-4.79588866 7.54226981 -6.47211993 9.20127563 -9 12 C-9.66 11.67 -10.32 11.34 -11 11 C-7.37 7.37 -3.74 3.74 0 0 Z " fill="#292829" transform="translate(310,95)"/>
<path d="M0 0 C0.99 1.32 1.98 2.64 3 4 C0.03 6.475 0.03 6.475 -3 9 C-3.99 7.68 -4.98 6.36 -6 5 C-5.34 5 -4.68 5 -4 5 C-4 4.34 -4 3.68 -4 3 C-2 1.375 -2 1.375 0 0 Z " fill="#F0F1F1" transform="translate(239,160)"/>
<path d="M0 0 C0.99 0.33 1.98 0.66 3 1 C2.06725891 2.12894876 1.12859878 3.25300876 0.1875 4.375 C-0.33457031 5.00148437 -0.85664063 5.62796875 -1.39453125 6.2734375 C-3 8 -3 8 -6 10 C-6 7 -6 7 -5 5 C-4.34 5 -3.68 5 -3 5 C-2.814375 4.0409375 -2.814375 4.0409375 -2.625 3.0625 C-2.41875 2.381875 -2.2125 1.70125 -2 1 C-1.34 0.67 -0.68 0.34 0 0 Z " fill="#EDECEC" transform="translate(232,169)"/>
<path d="M0 0 C0.66 1.32 1.32 2.64 2 4 C0.39125 4.86625 0.39125 4.86625 -1.25 5.75 C-4.3026529 7.48375824 -6.64597393 9.3634908 -9 12 C-9.66 11.67 -10.32 11.34 -11 11 C-7.37 7.37 -3.74 3.74 0 0 Z " fill="#EAEAEA" transform="translate(270,191)"/>
<path d="M0 0 C0.66 0.66 1.32 1.32 2 2 C-0.31 4.31 -2.62 6.62 -5 9 C-5.66 8.67 -6.32 8.34 -7 8 C-6.67 7.01 -6.34 6.02 -6 5 C-5.34 5 -4.68 5 -4 5 C-4.33 4.01 -4.66 3.02 -5 2 C-3.35 1.34 -1.7 0.68 0 0 Z " fill="#EDEDED" transform="translate(330,72)"/>
<path d="M0 0 C0.33 0.99 0.66 1.98 1 3 C0.01 3 -0.98 3 -2 3 C-4.0360882 4.27754554 -6.04109119 5.60699818 -8 7 C-8 5.35 -8 3.7 -8 2 C-5.09399739 0.74335022 -3.20395416 0 0 0 Z " fill="#EEEFEE" transform="translate(156,160)"/>
<path d="M0 0 C1.32 1.32 2.64 2.64 4 4 C1.03 6.475 1.03 6.475 -2 9 C-2.33 8.01 -2.66 7.02 -3 6 C-2.34 6 -1.68 6 -1 6 C-1.0309375 4.7934375 -1.0309375 4.7934375 -1.0625 3.5625 C-1 1 -1 1 0 0 Z " fill="#EEEEEE" transform="translate(246,152)"/>
<path d="M0 0 C1.134375 0.020625 2.26875 0.04125 3.4375 0.0625 C1.625 2.5625 1.625 2.5625 -0.5625 5.0625 C-1.5525 5.0625 -2.5425 5.0625 -3.5625 5.0625 C-4.125 3.125 -4.125 3.125 -4.5625 1.0625 C-3.5625 0.0625 -3.5625 0.0625 0 0 Z " fill="#2F2F2F" transform="translate(276.5625,72.9375)"/>
<path d="M0 0 C0.99 0.99 1.98 1.98 3 3 C0.03 5.475 0.03 5.475 -3 8 C-3.66 6.68 -4.32 5.36 -5 4 C-4.01 4.33 -3.02 4.66 -2 5 C-2 3.68 -2 2.36 -2 1 C-1.34 0.67 -0.68 0.34 0 0 Z " fill="#EDEDED" transform="translate(295,105)"/>
<path d="M0 0 C1.65 0.33 3.3 0.66 5 1 C3.35 2.98 1.7 4.96 0 7 C-0.66 6.67 -1.32 6.34 -2 6 C-1.34 4.02 -0.68 2.04 0 0 Z " fill="#EBECEC" transform="translate(205,194)"/>
<path d="M0 0 C1.32 0.66 2.64 1.32 4 2 C2.35 3.98 0.7 5.96 -1 8 C-1.66 7.34 -2.32 6.68 -3 6 C-2.505 5.195625 -2.01 4.39125 -1.5 3.5625 C0.08419653 1.35103815 0.08419653 1.35103815 0 0 Z " fill="#ECECEC" transform="translate(261,138)"/>
<path d="M0 0 C0.99 0.99 1.98 1.98 3 3 C0.03 5.475 0.03 5.475 -3 8 C-3.33 7.34 -3.66 6.68 -4 6 C-3.67 5.34 -3.34 4.68 -3 4 C-2.34 4 -1.68 4 -1 4 C-0.67 2.68 -0.34 1.36 0 0 Z " fill="#EBEBEB" transform="translate(303,97)"/>
<path d="M0 0 C1.98 1.65 3.96 3.3 6 5 C5.67 5.99 5.34 6.98 5 8 C3.02 6.35 1.04 4.7 -1 3 C-0.67 2.01 -0.34 1.02 0 0 Z " fill="#3F3F3F" transform="translate(355,94)"/>
<path d="M0 0 C0.66 0.99 1.32 1.98 2 3 C1.67 3.99 1.34 4.98 1 6 C-0.875 5.6875 -0.875 5.6875 -3 5 C-3.66 4.01 -4.32 3.02 -5 2 C-4.360625 1.855625 -3.72125 1.71125 -3.0625 1.5625 C-1.02454854 1.18992819 -1.02454854 1.18992819 0 0 Z " fill="#F5F8F7" transform="translate(350,81)"/>
<path d="M0 0 C0.66 0.66 1.32 1.32 2 2 C-0.97 4.475 -0.97 4.475 -4 7 C-4 5.68 -4 4.36 -4 3 C-2 1.25 -2 1.25 0 0 Z " fill="#EBEBEB" transform="translate(320,82)"/>
<path d="M0 0 C0.33 0.66 0.66 1.32 1 2 C0.67 2.66 0.34 3.32 0 4 C0.66 4.33 1.32 4.66 2 5 C0.02253397 5.73080266 -1.98072489 6.39421747 -4 7 C-4.66 6.67 -5.32 6.34 -6 6 C-4.02 4.02 -2.04 2.04 0 0 Z " fill="#353435" transform="translate(146,169)"/>
<path d="M0 0 C0.99 0.33 1.98 0.66 3 1 C2.60196439 3.88575819 2.20990931 4.82189513 -0.0625 6.75 C-0.701875 7.1625 -1.34125 7.575 -2 8 C-2.33 7.34 -2.66 6.68 -3 6 C-2.505 5.566875 -2.01 5.13375 -1.5 4.6875 C0.33218192 3.00259517 0.33218192 3.00259517 0 0 Z " fill="#282728" transform="translate(213,242)"/>
<path d="M0 0 C0.66 0.66 1.32 1.32 2 2 C0.35 3.32 -1.3 4.64 -3 6 C-3.66 5.01 -4.32 4.02 -5 3 C-3 1 -3 1 0 0 Z " fill="#F1F1F1" transform="translate(142,170)"/>
<path d="M0 0 C1.32 0.66 2.64 1.32 4 2 C2.35 3.65 0.7 5.3 -1 7 C-1 5.68 -1 4.36 -1 3 C-0.34 3 0.32 3 1 3 C0.67 2.01 0.34 1.02 0 0 Z " fill="#EBEBEB" transform="translate(253,146)"/>
<path d="M0 0 C0.99 0.99 1.98 1.98 3 3 C1.68 4.32 0.36 5.64 -1 7 C-1.66 5.68 -2.32 4.36 -3 3 C-2.34 2.67 -1.68 2.34 -1 2 C-0.67 1.34 -0.34 0.68 0 0 Z " fill="#EDEDED" transform="translate(277,122)"/>
<path d="M0 0 C0.66 0.33 1.32 0.66 2 1 C2 2.32 2 3.64 2 5 C0.68 5.33 -0.64 5.66 -2 6 C-2.33 4.68 -2.66 3.36 -3 2 C-2.01 1.34 -1.02 0.68 0 0 Z " fill="#F6F7F6" transform="translate(324,72)"/>
<path d="M0 0 C1.32 0.66 2.64 1.32 4 2 C3.01 3.485 3.01 3.485 2 5 C0.68 4.67 -0.64 4.34 -2 4 C-1.34 2.68 -0.68 1.36 0 0 Z " fill="#F6F8F7" transform="translate(242,153)"/>
<path d="M0 0 C1.32 0.66 2.64 1.32 4 2 C2.68 3.32 1.36 4.64 0 6 C-0.99 5.67 -1.98 5.34 -3 5 C-2.67 4.34 -2.34 3.68 -2 3 C-1.34 3.33 -0.68 3.66 0 4 C0 2.68 0 1.36 0 0 Z " fill="#ECECEC" transform="translate(269,130)"/>
<path d="M0 0 C0.33 1.32 0.66 2.64 1 4 C-0.32 4.99 -1.64 5.98 -3 7 C-3.33 6.01 -3.66 5.02 -4 4 C-2.68 2.68 -1.36 1.36 0 0 Z " fill="#F0F0F0" transform="translate(258,95)"/>
<path d="M0 0 C-1.32 1.32 -2.64 2.64 -4 4 C-4.99 2.68 -5.98 1.36 -7 0 C-3.98968256 -0.93423645 -3.13349732 -1.04449911 0 0 Z " fill="#E7E7E7" transform="translate(202,203)"/>
<path d="M0 0 C2.3431213 0.25561323 4.67843403 0.59270772 7 1 C7.33 1.66 7.66 2.32 8 3 C6.02 3.99 6.02 3.99 4 5 C2.68 3.35 1.36 1.7 0 0 Z " fill="#E8EAE9" transform="translate(168,176)"/>
<path d="M0 0 C0 3 0 3 -2.5 5.6875 C-3.325 6.450625 -4.15 7.21375 -5 8 C-5.66 7.67 -6.32 7.34 -7 7 C-4.69 4.69 -2.38 2.38 0 0 Z " fill="#302E2F" transform="translate(262,143)"/>
</svg>
